# xmcd
#
# Track frame offsets:
#	150
#	16355
#	35397
#	49380
#	69520
#	82857
#	104687
#	125630
#	146500
#	166585
#
# Disc length: 2432 seconds
#
# Revision: 1
# Processed by: cddbd v1.5.1PL0 Copyright (c) Steve Scherf et al.
# Submitted via: audiograbber 1.81.03
#
DISCID=81097e0a
DTITLE=Gordon`Vincent - You Should Know
DYEAR=2004
DGENRE=Country
TTITLE0=Too Short To Be A Man
TTITLE1=Nobody But Myself To Blame
TTITLE2=Deconstruction Baby
TTITLE3=Ice Cream Song
TTITLE4=You Should Song
TTITLE5=Only Knows
TTITLE6=I Can't Be Your Baby
TTITLE7=Always Alone
TTITLE8=Get Up On It Now
TTITLE9=Feels Like Rain
EXTD=
EXTT0=
EXTT1=
EXTT2=
EXTT3=
EXTT4=
EXTT5=
EXTT6=
EXTT7=
EXTT8=
EXTT9=
PLAYORDER=
